<svg xmlns="http://www.w3.org/2000/svg" viewBox="0 0 96 96" width="96" height="96">
  <rect width="96" height="96" fill="#FBEFD3"/>
  <path d="M12 96c0-20 16-33 36-33s36 13 36 33z" fill="#2F3A4A"/>
  <path d="M38 63h20l-10 12z" fill="#E9EDF2"/>
  <path d="M41 52h14v12a7 7 0 0 1-14 0z" fill="#DDB89C"/>
  <ellipse cx="48" cy="40" rx="15" ry="17" fill="#F0CFB4"/>
  <path d="M33 36c0-11 7-17 15-17s15 6 15 17c-3-5-8-7-15-7s-12 2-15 7z" fill="#8E8E8E"/>
  <path d="M34 42c1 10 7 15 14 15s13-5 14-15c-2 4-4 6-6 6h-16c-2 0-4-2-6-6z" fill="#8E8E8E"/>
</svg>
